<svg xmlns="http://www.w3.org/2000/svg" width="700pt" height="700pt" viewBox="0 0 700 700"><path d="m564.79 80.18c0 24.949-20.227 45.176-45.18 45.176-24.949 0-45.176-20.227-45.176-45.176 0-24.953 20.227-45.18 45.176-45.18 24.953 0 45.18 20.227 45.18 45.18"/><path d="m225.57 80.18c0 24.949-20.227 45.176-45.176 45.176-24.953 0-45.18-20.227-45.18-45.176 0-24.953 20.227-45.18 45.18-45.18 24.949 0 45.176 20.227 45.176 45.18"/><path d="m217.41 490.05c12.77 0 25.445-1.7227 37.793-4.9219v86.238c0 51.629 42.027 93.629 93.688 93.629 51.625 0 93.625-42 93.625-93.625v-86.848c12.797 3.5078 26.195 5.543 40.082 5.543 83.762 0 151.91-68.145 151.91-151.91v-19.074c0-10.668-8.6445-19.305-19.305-19.305s-19.305 8.6445-19.305 19.305v19.074c0 62.469-50.828 113.29-113.3 113.29-14.125 0-27.602-2.7148-40.082-7.4609v-1.7656h-4.6055c-40.266-17.359-68.543-57.395-68.594-103.94 0-0.050781 0.007813-0.089844 0.007813-0.14062v-48.211c5.0898-2.2812 9.8789-5.4688 14.055-9.6445l42.027-42.027c18.727-18.719 21.672-48.574 5.8516-69.812-19.902-26.703-57.902-28.734-80.551-6.082l-0.69922 0.69922-0.69922-0.69922c-22.645-22.645-60.648-20.621-80.551 6.082-15.82 21.23-12.871 51.086 5.8438 69.812l42.035 42.035c4.1797 4.1797 8.9688 7.3555 14.055 9.6445v48.23c0 0.042969 0.007813 0.085937 0.007813 0.125-0.007813 4.3203-0.25391 8.4492-0.78516 12.586-4.6562 41.379-31.676 76.551-69.875 92.121h-4.8359v1.8047c-1.4844 0.52344-2.9453 1.0938-4.4609 1.5625-10.828 3.3672-22.043 5.0664-33.34 5.0664-62.469 0-113.3-50.82-113.3-113.29l0.007813-19.09c0-10.668-8.6445-19.305-19.305-19.305s-19.305 8.6445-19.305 19.305v19.082c-0.015624 83.77 68.137 151.91 151.9 151.91zm70.238-17.402c17.305-9.043 32.535-21.203 45.004-35.723v99.664c0 8.9609 7.2578 16.219 16.219 16.219 8.9609 0 16.219-7.2578 16.219-16.219v-102.3c12.41 15.148 27.68 27.867 44.98 37.309v99.77c0 33.738-27.445 61.188-61.18 61.188-33.77 0-61.242-27.445-61.242-61.188z"/><path d="m503.18 370.69c0 11.367-9.2148 20.582-20.582 20.582s-20.578-9.2148-20.578-20.582c0-11.367 9.2109-20.578 20.578-20.578s20.582 9.2109 20.582 20.578"/><path d="m540.05 317.94c0 11.363-9.2148 20.578-20.582 20.578-11.363 0-20.578-9.2148-20.578-20.578 0-11.367 9.2148-20.582 20.578-20.582 11.367 0 20.582 9.2148 20.582 20.582"/><path d="m466.3 317.94c0 11.363-9.2109 20.578-20.578 20.578s-20.582-9.2148-20.582-20.578c0-11.367 9.2148-20.582 20.582-20.582s20.578 9.2148 20.578 20.582"/><path d="m237.98 370.69c0 11.367-9.2109 20.582-20.578 20.582s-20.582-9.2148-20.582-20.582c0-11.367 9.2148-20.578 20.582-20.578s20.578 9.2109 20.578 20.578"/><path d="m274.86 317.94c0 11.363-9.2148 20.578-20.582 20.578s-20.578-9.2148-20.578-20.578c0-11.367 9.2109-20.582 20.578-20.582s20.582 9.2148 20.582 20.582"/><path d="m201.11 317.94c0 11.363-9.2148 20.578-20.578 20.578-11.367 0-20.582-9.2148-20.582-20.578 0-11.367 9.2148-20.582 20.582-20.582 11.363 0 20.578 9.2148 20.578 20.582"/></svg>